<?xml version="1.0" standalone="no"?>
<!DOCTYPE svg PUBLIC "-//W3C//DTD SVG 20010904//EN"
 "http://www.w3.org/TR/2001/REC-SVG-20010904/DTD/svg10.dtd">
<svg version="1.0" xmlns="http://www.w3.org/2000/svg"
 width="220.000000pt" height="211.000000pt" viewBox="0 0 220.000000 211.000000"
 preserveAspectRatio="xMidYMid meet">
<metadata>
Created by potrace 1.11, written by Peter Selinger 2001-2013
</metadata>
<g transform="translate(0.000000,211.000000) scale(0.100000,-0.100000)"
fill="#000000" stroke="none">
<path d="M70 1050 l0 -970 1035 0 1035 0 0 970 0 970 -1035 0 -1035 0 0 -970z
m241 920 c28 -12 116 -63 194 -114 l142 -93 44 22 c49 25 170 60 240 70 28 3
54 14 65 27 36 39 115 72 177 72 62 1 73 -6 84 -57 7 -35 6 -34 119 -63 52
-13 113 -33 134 -44 22 -11 44 -20 50 -20 6 0 37 19 68 43 79 60 219 143 271
162 66 23 117 20 146 -10 23 -22 25 -32 25 -114 0 -145 -40 -283 -116 -402
-17 -26 -16 -29 16 -108 18 -45 45 -97 61 -117 16 -20 29 -44 29 -54 0 -9 11
-38 25 -64 17 -32 25 -63 25 -96 0 -49 -1 -50 -54 -84 -53 -34 -78 -62 -176
-197 -92 -126 -216 -245 -420 -400 -295 -225 -347 -244 -462 -175 -259 157
-595 455 -712 634 -24 37 -76 98 -116 137 l-72 69 4 58 c2 32 11 65 20 75 8
10 18 34 22 54 3 20 17 45 29 57 13 12 40 57 61 101 l39 79 -26 33 c-74 97
-117 241 -117 392 0 91 2 100 25 122 31 32 84 33 156 5z"/>
<path d="M206 1923 c-3 -4 -6 -43 -6 -88 0 -134 40 -254 119 -353 l42 -52 -46
-98 c-26 -53 -62 -116 -82 -139 -24 -31 -30 -43 -19 -43 20 0 20 -14 1 -30 -8
-7 -24 -27 -36 -46 l-20 -33 66 -63 c37 -34 92 -101 123 -148 73 -111 271
-309 427 -427 140 -105 314 -223 330 -223 7 0 65 37 131 81 265 181 476 367
579 510 72 99 170 206 208 225 26 14 27 16 12 42 -8 15 -25 40 -37 55 -18 23
-20 30 -9 36 11 7 7 17 -18 48 -17 22 -44 73 -60 114 -16 41 -39 91 -51 111
l-22 37 32 33 c82 87 133 236 128 374 -3 78 -3 79 -28 75 -49 -6 -212 -104
-355 -211 l-41 -31 -74 35 c-41 19 -117 44 -168 57 -109 26 -142 47 -142 90 0
19 -5 29 -15 29 -29 0 -88 -30 -125 -64 -30 -27 -48 -34 -99 -40 -83 -9 -200
-49 -290 -97 -41 -22 -68 -33 -61 -24 17 21 7 31 -113 113 -159 107 -264 162
-281 145z m76 -36 c51 -23 292 -179 302 -196 8 -13 -216 -232 -231 -227 -23 9
-93 128 -114 195 -27 85 -36 251 -14 251 3 0 28 -11 57 -23z m1706 -18 c8 -83
-26 -227 -75 -314 -20 -37 -66 -95 -74 -95 -3 0 -56 50 -117 112 -87 86 -109
114 -101 124 6 8 62 47 124 89 114 76 212 127 230 122 6 -2 11 -19 13 -38z
m-811 -29 c12 -32 66 -70 100 -70 12 0 59 -12 105 -26 228 -71 401 -214 493
-405 19 -41 35 -78 35 -84 0 -6 14 -32 30 -58 35 -55 35 -55 15 -59 -10 -2 -1
-18 30 -56 l44 -53 -82 -82 c-45 -45 -102 -111 -127 -147 -65 -93 -201 -232
-324 -330 -122 -97 -277 -210 -289 -210 -5 0 65 80 155 178 208 224 455 506
441 501 -7 -2 -119 -123 -250 -269 -131 -145 -276 -307 -323 -359 -47 -52 -93
-99 -102 -105 -21 -13 -60 8 -198 102 -246 168 -468 375 -574 536 -30 44 -82
108 -115 141 -34 33 -61 62 -61 66 0 3 19 27 42 53 32 37 38 50 28 56 -11 7
-8 16 13 47 14 21 38 65 53 98 78 173 198 297 369 383 80 40 207 79 286 88 51
6 67 12 83 32 22 28 74 62 96 62 9 0 21 -13 27 -30z"/>
<path d="M230 1852 c0 -16 93 -202 127 -254 50 -74 33 -29 -38 103 -94 176
-88 166 -89 151z"/>
<path d="M1947 1803 c-51 -88 -148 -276 -144 -279 9 -9 119 186 147 262 9 22
7 33 -3 17z"/>
<path d="M590 1303 c-61 -54 -47 -145 32 -219 55 -53 112 -76 202 -81 45 -3
89 -10 98 -14 10 -5 23 -27 29 -49 7 -22 15 -40 19 -40 16 0 44 77 44 120 0
64 -35 133 -98 194 -113 111 -258 150 -326 89z m160 -103 c0 -37 31 -100 50
-100 17 0 44 43 52 82 3 15 6 16 27 5 36 -18 47 -41 36 -73 -14 -39 -56 -66
-105 -68 -38 -1 -47 4 -81 43 -37 41 -58 98 -44 120 3 6 19 11 36 11 22 0 29
-5 29 -20z"/>
<path d="M1391 1304 c-74 -37 -169 -128 -197 -189 -28 -60 -31 -127 -6 -174
21 -43 42 -52 42 -18 0 13 9 36 21 51 18 23 28 26 77 26 87 0 128 10 185 44
95 56 140 155 105 231 -27 60 -136 74 -227 29z m107 -70 c16 -5 22 -14 22 -36
0 -37 -14 -64 -53 -105 -25 -27 -39 -33 -72 -33 -90 0 -148 83 -89 129 35 27
40 26 49 -6 8 -34 32 -73 45 -73 17 0 43 50 46 88 2 20 3 38 3 40 1 4 25 2 49
-4z"/>
<path d="M405 952 c22 -41 608 -692 622 -692 9 0 -39 55 -386 441 -190 211
-249 274 -236 251z"/>
<path d="M990 781 c0 -14 93 -91 109 -91 19 0 112 80 105 91 -7 12 -214 12
-214 0z"/>
<path d="M1053 523 c-48 -9 -20 -23 47 -23 69 0 92 12 48 24 -25 6 -59 6 -95
-1z"/>
</g>
</svg>
