<?xml version="1.0" encoding="UTF-8" standalone="no"?>
<!-- Generator: Adobe Illustrator 17.0.1, SVG Export Plug-In . SVG Version: 6.00 Build 0)  -->

<svg
   xmlns:dc="http://purl.org/dc/elements/1.1/"
   xmlns:cc="http://creativecommons.org/ns#"
   xmlns:rdf="http://www.w3.org/1999/02/22-rdf-syntax-ns#"
   xmlns:svg="http://www.w3.org/2000/svg"
   xmlns="http://www.w3.org/2000/svg"
   xmlns:sodipodi="http://sodipodi.sourceforge.net/DTD/sodipodi-0.dtd"
   xmlns:inkscape="http://www.inkscape.org/namespaces/inkscape"
   version="1.1"
   id="Layer_1"
   x="0px"
   y="0px"
   width="64px"
   height="64px"
   viewBox="0 0 64 64"
   enable-background="new 0 0 64 64"
   xml:space="preserve"
   inkscape:version="0.48.5 r10040"
   sodipodi:docname="jira.svg"><metadata
     id="metadata3143"><rdf:RDF><cc:Work
         rdf:about=""><dc:format>image/svg+xml</dc:format><dc:type
           rdf:resource="http://purl.org/dc/dcmitype/StillImage" /></cc:Work></rdf:RDF></metadata><defs
     id="defs3141" /><sodipodi:namedview
     pagecolor="#ffffff"
     bordercolor="#666666"
     borderopacity="1"
     objecttolerance="10"
     gridtolerance="10"
     guidetolerance="10"
     inkscape:pageopacity="0"
     inkscape:pageshadow="2"
     inkscape:window-width="1358"
     inkscape:window-height="975"
     id="namedview3139"
     showgrid="false"
     inkscape:zoom="10.982252"
     inkscape:cx="25.720181"
     inkscape:cy="39.185018"
     inkscape:window-x="0"
     inkscape:window-y="0"
     inkscape:window-maximized="0"
     inkscape:current-layer="g3099" /><g
     id="g3099"><g
       id="g3101"><circle
         fill="#000000"
         cx="32"
         cy="32"
         r="32"
         id="circle3103" /></g><g
       id="g3105"
       transform="matrix(1.5746193,0,0,1.5746193,-18.3054,-18.256484)"><g
         id="g3107"><g
           id="g3109"><g
             id="g3111"><g
               id="g3113"><path
                 d="m 24.794,17.276 c -1.212,0 -2.193,0.98 -2.193,2.195 0,1.212 0.981,2.195 2.193,2.195 1.213,0 2.193,-0.984 2.193,-2.195 0.001,-1.215 -0.98,-2.195 -2.193,-2.195 l 0,0 0,0 z"
                 id="path3115"
                 inkscape:connector-curvature="0"
                 style="fill:#ffffff" /></g></g><g
             id="g3117"><g
               id="g3119"><path
                 d="m 39.204,17.276 c -1.213,0 -2.193,0.98 -2.193,2.195 0,1.212 0.98,2.195 2.193,2.195 1.209,0 2.193,-0.984 2.193,-2.195 0,-1.215 -0.984,-2.193 -2.193,-2.195 l 0,0 0,0 z"
                 id="path3121"
                 inkscape:connector-curvature="0"
                 style="fill:#ffffff" /></g></g></g><g
           id="g3123"><g
             id="g3125"><path
               d="m 31.999,15.273 c -1.212,0 -2.193,0.98 -2.193,2.195 0,1.212 0.981,2.196 2.193,2.196 1.213,0 2.193,-0.984 2.193,-2.196 0,-1.215 -0.98,-2.195 -2.193,-2.195 l 0,0 0,0 z"
               id="path3127"
               inkscape:connector-curvature="0"
               style="fill:#ffffff" /></g></g></g><g
         id="g3129"><path
           d="M 44.389,23.393 C 44.267,23.3 44.12,23.252 43.971,23.252 c -0.082,0 -0.166,0.015 -0.245,0.045 -1.485,0.568 -2.993,0.999 -4.37,1.32 -0.281,0.066 -0.508,0.274 -0.602,0.524 -1.003,2.747 -3.564,5.363 -6.251,8.103 -0.108,0.102 -0.259,0.237 -0.505,0.237 -0.245,0 -0.395,-0.131 -0.505,-0.237 -2.686,-2.74 -5.247,-5.347 -6.251,-8.094 -0.094,-0.25 -0.321,-0.459 -0.601,-0.524 -1.377,-0.321 -2.889,-0.765 -4.372,-1.333 -0.08,-0.03 -0.163,-0.045 -0.246,-0.045 -0.149,0 -0.293,0.047 -0.415,0.14 -0.19,0.145 -0.289,0.381 -0.267,0.607 0.228,2.284 1.13,4.518 2.759,6.858 1.531,2.2 3.529,4.237 5.46,6.206 3.558,3.629 6.919,7.057 7.214,11.032 0.027,0.358 0.325,0.636 0.685,0.636 h 4.18 c 0.188,0 0.368,-0.077 0.498,-0.214 0.13,-0.136 0.198,-0.319 0.189,-0.508 -0.132,-2.657 -1.132,-5.319 -3.057,-8.135 -0.404,-0.591 -0.836,-1.165 -1.288,-1.727 -0.183,-0.229 -0.107,-0.513 0.034,-0.657 0.139,-0.142 0.278,-0.284 0.419,-0.427 1.931,-1.97 3.928,-4.006 5.46,-6.206 1.629,-2.341 2.531,-4.561 2.759,-6.845 0.026,-0.23 -0.079,-0.473 -0.264,-0.615 z"
           id="path3131"
           inkscape:connector-curvature="0"
           style="fill:#ffffff" /><g
           id="g3133"><path
             d="m 27.514,40.15 c -0.099,-0.103 -0.244,-0.209 -0.488,-0.209 -0.312,0 -0.497,0.216 -0.567,0.323 -1.758,2.676 -2.666,5.201 -2.792,7.739 -0.009,0.187 0.06,0.373 0.189,0.51 0.13,0.136 0.312,0.214 0.5,0.214 h 4.173 c 0.359,0 0.661,-0.281 0.688,-0.639 0.091,-1.223 0.472,-2.449 1.165,-3.738 0.24,-0.446 0.054,-0.864 -0.085,-1.043 -0.687,-0.895 -1.53,-1.849 -2.783,-3.157 z"
             id="path3135"
             inkscape:connector-curvature="0"
             style="fill:#ffffff" /></g><path
           d="m 32.004,25.441 c 1.31,0 2.07,-0.079 2.337,-0.079 0.323,0 0.632,0.265 0.632,0.636 0,0.108 -0.026,0.186 -0.051,0.254 -0.174,0.465 -0.966,2.136 -2.44,3.569 -0.165,0.161 -0.353,0.191 -0.482,0.191 h -0.002 c -0.129,0 -0.316,-0.03 -0.481,-0.191 -1.474,-1.433 -2.266,-3.105 -2.44,-3.569 -0.026,-0.068 -0.051,-0.146 -0.051,-0.254 0,-0.371 0.309,-0.636 0.633,-0.636 0.267,0 1.026,0.079 2.336,0.079 h 0.009 z"
           id="path3137"
           inkscape:connector-curvature="0"
           style="fill:#ffffff" /></g></g></g></svg>